<?xml version="1.0" standalone="no"?>
<!DOCTYPE svg PUBLIC "-//W3C//DTD SVG 20010904//EN"
 "http://www.w3.org/TR/2001/REC-SVG-20010904/DTD/svg10.dtd">
<svg version="1.0" xmlns="http://www.w3.org/2000/svg"
 width="2000.000000pt" height="562.000000pt" viewBox="0 0 2000.000000 562.000000"
 preserveAspectRatio="xMidYMid meet">

<g transform="translate(0.000000,562.000000) scale(0.100000,-0.100000)"
fill="#000000" stroke="none">
<path d="M0 2810 l0 -2810 10000 0 10000 0 0 2810 0 2810 -10000 0 -10000 0 0
-2810z m17179 975 c176 -42 307 -163 366 -338 71 -213 -10 -446 -201 -578 -52
-35 -164 -78 -206 -79 -15 0 -30 -4 -33 -10 -8 -13 -59 -13 -83 -1 -9 5 -43
14 -74 21 -136 27 -273 134 -335 260 -41 83 -52 136 -53 236 -1 324 302 563
619 489z"/>
<path d="M16824 3309 c-42 -12 -101 -79 -110 -123 -8 -48 2 -98 27 -130 31
-39 63 -34 114 18 27 28 58 49 82 55 56 15 77 42 70 87 -13 80 -92 120 -183
93z"/>
<path d="M17194 3306 c-71 -31 -98 -116 -49 -155 14 -11 40 -23 57 -26 17 -4
49 -26 72 -51 50 -52 84 -57 114 -19 46 58 36 159 -20 212 -54 50 -116 64
-174 39z"/>
<path d="M17000 3042 c-31 -25 -19 -57 26 -72 53 -18 124 9 124 46 0 41 -109
60 -150 26z"/>
</g>
</svg>
