<svg width="456" height="108" fill="none" xmlns="http://www.w3.org/2000/svg"><g opacity=".5" clip-path="url(#clip0)" fill="gray"><path d="M53.145 55.712a36.425 36.425 0 01-2.007 12.382 26.344 26.344 0 01-5.811 9.441 25.753 25.753 0 01-9.358 6.033 35.33 35.33 0 01-12.604 2.111c-1.947 0-4-.09-6.143-.271a104.259 104.259 0 01-6.294-.71 100.537 100.537 0 01-5.932-1.025A58.677 58.677 0 010 82.421V2.61L16.196 0v28.46a30.534 30.534 0 015.645-1.856 29.894 29.894 0 016.279-.648 25.767 25.767 0 0110.762 2.126 20.917 20.917 0 017.818 6.033 27.138 27.138 0 014.785 9.396 42.74 42.74 0 011.66 12.2zm-16.512-.438c0-10.416-3.844-15.63-11.532-15.64a18.973 18.973 0 00-4.936.664 13.393 13.393 0 00-3.97 1.63v29.424c.8.135 1.812.271 3.02.376 1.207.106 2.565.166 4.014.166a11.615 11.615 0 009.992-4.524 19.775 19.775 0 003.412-12.096zm72.375 27.042a91.348 91.348 0 01-10.657 2.232 88.632 88.632 0 01-13.69 1.025 32.37 32.37 0 01-12.075-1.96 18.323 18.323 0 01-7.668-5.475 21.59 21.59 0 01-4.015-8.415 45.12 45.12 0 01-1.192-10.754V27.147h16.15v29.862c0 5.218.685 8.983 2.053 11.296 1.389 2.323 3.955 3.484 7.728 3.484 1.148 0 2.385 0 3.683-.166s2.476-.241 3.487-.377V27.147h16.196v55.169zm61.613-55.169c-3.27 11.01-6.682 21.316-10.234 30.918a377.472 377.472 0 01-11.667 28.051 63.407 63.407 0 01-4.528 8.31 25.509 25.509 0 01-4.997 5.641 17.4 17.4 0 01-6.203 3.243 27.622 27.622 0 01-8 1.04 32.899 32.899 0 01-7.018-.709 30.169 30.169 0 01-5.283-1.508l2.837-12.91a29.27 29.27 0 004.528 1.192 25.86 25.86 0 004.136.316 9.061 9.061 0 006.566-2.382 18.887 18.887 0 003.97-6.47c-3.653-7.24-7.336-15.364-11.049-24.373a303.63 303.63 0 01-10.445-30.359h17.177c.724 2.835 1.509 5.882 2.566 9.185 1.056 3.303 2.022 6.62 3.109 9.984a356.647 356.647 0 003.336 9.833 409.302 409.302 0 003.215 8.687c.946-2.614 1.927-5.51 2.943-8.687a426.12 426.12 0 003.019-9.833 544.71 544.71 0 002.838-9.984 710.79 710.79 0 002.46-9.185h16.724zm53.719 49.951c0 9.35-2.375 16.283-7.125 20.797-4.749 4.515-12.085 6.777-22.006 6.787a59.396 59.396 0 01-10.43-.92 66.142 66.142 0 01-9.675-2.443l2.822-13.574a47.25 47.25 0 008 2.383c3.131.62 6.318.913 9.509.875 4.629 0 7.904-1.005 9.826-3.016a10.901 10.901 0 002.883-7.813v-2.096a25.57 25.57 0 01-5.373 1.795c-1.986.41-4.01.612-6.038.603-7.889 0-13.927-2.338-18.113-7.013-4.211-4.66-6.309-11.206-6.309-19.606a31.89 31.89 0 011.962-11.462 24.135 24.135 0 015.706-8.853 25.444 25.444 0 019.117-5.64 35.164 35.164 0 0112.286-2.007c1.952 0 3.965.09 6.037.272 2.068.18 4.121.422 6.144.709a85.79 85.79 0 015.811 1.025 62.02 62.02 0 014.951 1.252l.015 47.945zm-35.546-23.226c0 9.049 3.662 13.573 10.988 13.573 1.579.01 3.15-.214 4.664-.663a17.409 17.409 0 003.698-1.508v-25.85a32.19 32.19 0 00-2.823-.377 39.638 39.638 0 00-3.803-.166 11.182 11.182 0 00-9.57 4.238 17.553 17.553 0 00-3.185 10.753h.031zm98.759 1.734a37.311 37.311 0 01-1.947 12.322 27.135 27.135 0 01-5.661 9.562 25.43 25.43 0 01-8.814 6.123 31.617 31.617 0 01-23.034 0 25.436 25.436 0 01-8.86-6.123 28.255 28.255 0 01-5.841-9.562 35.073 35.073 0 01-2.068-12.322 34.294 34.294 0 012.113-12.276 27.817 27.817 0 015.992-9.396 26.352 26.352 0 018.906-6.033 30.514 30.514 0 0122.641 0 25.674 25.674 0 018.86 6.033 27.553 27.553 0 015.75 9.441 34.662 34.662 0 011.963 12.231zm-16.513 0a20.303 20.303 0 00-3.019-11.779 9.776 9.776 0 00-8.528-4.298 9.91 9.91 0 00-8.588 4.298c-2.038 2.85-3.019 6.787-3.019 11.78a20.478 20.478 0 003.019 11.884 9.812 9.812 0 008.588 4.403 9.694 9.694 0 008.619-4.403 20.834 20.834 0 002.928-11.885zm77.069 0a37.266 37.266 0 01-1.962 12.322 26.86 26.86 0 01-5.585 9.562 25.563 25.563 0 01-8.86 6.123 29.603 29.603 0 01-11.577 2.172 29.287 29.287 0 01-11.471-2.172 25.367 25.367 0 01-8.845-6.123 28.032 28.032 0 01-5.766-9.562 35.427 35.427 0 01-2.068-12.322 33.988 33.988 0 012.128-12.276 27.793 27.793 0 015.781-9.396 26.4 26.4 0 018.921-6.033 30.467 30.467 0 0122.641 0 25.672 25.672 0 018.86 6.033 27.594 27.594 0 015.766 9.441 34.976 34.976 0 012.037 12.231zm-16.603 0a20.303 20.303 0 00-3.019-11.779 9.744 9.744 0 00-8.528-4.298 9.91 9.91 0 00-8.588 4.298c-2.023 2.85-3.019 6.787-3.019 11.78a20.591 20.591 0 003.019 11.884 9.81 9.81 0 008.588 4.403 9.681 9.681 0 008.528-4.403 20.83 20.83 0 003.019-11.885zm74.065 26.815a64.63 64.63 0 01-4.996 1.252 89.027 89.027 0 01-5.916 1.026c-2.068.286-4.166.528-6.31.709a72.917 72.917 0 01-6.143.271 35.69 35.69 0 01-12.603-2.066 24.723 24.723 0 01-15.094-15.248 35.591 35.591 0 01-2.008-12.321 42.02 42.02 0 011.646-12.548 27.135 27.135 0 014.996-9.502 21.296 21.296 0 017.984-6.032 26.902 26.902 0 0110.823-2.067 26.12 26.12 0 016.037.649 33.139 33.139 0 015.389 1.855V2.609L405.556 0l.015 82.421zm-36.617-27.147a19.776 19.776 0 003.366 12.066 11.637 11.637 0 0010.007 4.524c1.434 0 2.777 0 4.015-.166 1.238-.165 2.249-.24 3.019-.377V41.927a13.598 13.598 0 00-3.97-1.629 19.091 19.091 0 00-4.951-.663c-7.657 0-11.486 5.213-11.486 15.64zm62.805 17.374c2.14.13 4.283-.162 6.31-.86a3.366 3.366 0 001.841-3.377 4.064 4.064 0 00-2.385-3.409 45.767 45.767 0 00-7.275-3.318 74.575 74.575 0 01-6.913-2.926 20.66 20.66 0 01-5.268-3.71 14.713 14.713 0 01-3.366-5.037 18.661 18.661 0 01-1.192-7.058 15.278 15.278 0 016.037-12.714c4.025-3.107 9.495-4.66 16.407-4.66a52.668 52.668 0 0110.008.92 46.444 46.444 0 017.547 2.005l-2.763 12.654a61.42 61.42 0 00-6.143-1.735 32.941 32.941 0 00-7.441-.754c-5.031 0-7.547 1.408-7.547 4.223-.014.6.099 1.197.332 1.75a3.703 3.703 0 001.298 1.508c.846.578 1.74 1.083 2.672 1.508 1.117.543 2.551 1.146 4.286 1.81a66.874 66.874 0 018.8 3.876 21.127 21.127 0 015.494 4.147 12.687 12.687 0 012.823 4.932c.576 2.04.851 4.154.815 6.274a14.469 14.469 0 01-6.355 12.79c-4.246 2.895-10.243 4.338-17.991 4.328a51.554 51.554 0 01-12.664-1.297 52.91 52.91 0 01-7.004-2.172l2.717-13.136a53.327 53.327 0 008.483 2.549 40.97 40.97 0 008.437.89zM237.924 96.447s43.772 26.001 102.638 0v-5.203s-51.319 22.879-102.638 0v5.203z"/></g><defs><clipPath id="clip0"><path fill="#fff" d="M0 0h456v108H0z"/></clipPath></defs></svg>