<svg width="188" height="108" fill="none" xmlns="http://www.w3.org/2000/svg"><g clip-path="url(#clip0)" fill="#636363"><path fill-rule="evenodd" clip-rule="evenodd" d="M20.84 52.32h23.8v-8.95H11.9v31.87h8.69V52.46l.25-.14z"/><path fill-rule="evenodd" clip-rule="evenodd" d="M11.9 12.09h65l.14-.06A25.54 25.54 0 0177 63.09H60.87V30.83h9V54.3h7.29A16.7 16.7 0 1077 20.9H20.58v9.92h24v9H11.9V12.09zM142.18.35l39.29 66.24 5.62-9.3L152.26.35h-10.08zm-40.33 74.9l40.3-67.14 33.23 55h-45.81v-8.58h29.74l-17.16-28.64-28.14 49.36h-12.16z"/><path fill-rule="evenodd" clip-rule="evenodd" d="M181.47 66.59l-51.9-.01v8.67l46.8-.02.07-.2 5.03-8.44zm-133.31-.28V30.82h9v35.56H77a28.87 28.87 0 10.07-57.74H8.69v66.61H0V.01h77.15a37.332 37.332 0 0136.71 30.15L132.09.35h10.08l-31.26 52.38-3 5.12C101.15 67.71 90 75.01 77.15 75.16h-29v-8.85h.01z"/><path d="M9.21 97.53H3.7v9.48H.59V83.56h7.77a9.13 9.13 0 016.09 1.81 6.46 6.46 0 012.14 5.25 6.39 6.39 0 01-1.18 3.82 7.12 7.12 0 01-3.3 2.43l5.51 10v.14H14.3l-5.09-9.48zM3.7 95.01h4.75a5.4 5.4 0 003.67-1.19 4 4 0 001.36-3.2 4.23 4.23 0 00-1.3-3.34 5.44 5.44 0 00-3.74-1.18H3.7v8.91zm30.49 1.17H24v8.31h11.83v2.52H20.92V83.56h14.75v2.53H24v7.56h10.19v2.53zM57 103.94a7.139 7.139 0 01-3.33 2.56 13.512 13.512 0 01-5 .84 9.6 9.6 0 01-5.06-1.33 8.999 8.999 0 01-3.44-3.83 13.188 13.188 0 01-1.25-5.75v-2c0-3.533.827-6.27 2.48-8.21a8.58 8.58 0 017-2.92 8.84 8.84 0 015.91 1.88A8.12 8.12 0 0157 90.44h-3.09c-.58-3.113-2.427-4.67-5.54-4.67a5.499 5.499 0 00-4.72 2.18A10.67 10.67 0 0042 94.28v1.92a9.939 9.939 0 001.81 6.28 5.84 5.84 0 002.152 1.771c.85.407 1.786.602 2.728.569 1.03.017 2.057-.114 3.05-.39a4.714 4.714 0 002.15-1.3v-5.26h-5.4v-2.53H57v8.6zm8.48 3.07h-3.1V83.56h3.1v23.45zm12.57-10.44a14.67 14.67 0 01-5.8-2.82 5.35 5.35 0 01-1.81-4.11 5.68 5.68 0 012.22-4.63 8.77 8.77 0 015.76-1.81 9.68 9.68 0 014.31.93 7.17 7.17 0 012.93 2.58 6.65 6.65 0 011 3.6h-3.07a4.291 4.291 0 00-1.35-3.3 5.55 5.55 0 00-3.82-1.22 5.64 5.64 0 00-3.57 1 3.34 3.34 0 00-1.28 2.8 3 3 0 001.21 2.42 11.79 11.79 0 004.14 1.81 19.278 19.278 0 014.58 1.82 6.94 6.94 0 012.5 2.31 5.92 5.92 0 01.8 3.11 5.48 5.48 0 01-2.23 4.57 9.489 9.489 0 01-5.94 1.71 11.001 11.001 0 01-4.51-.92 7.674 7.674 0 01-3.24-2.54 6.222 6.222 0 01-1.13-3.66h3.11a4 4 0 001.57 3.36 6.64 6.64 0 004.2 1.24 6.11 6.11 0 003.75-1 3.275 3.275 0 001.31-2.73 3.18 3.18 0 00-1.21-2.66 13.94 13.94 0 00-4.43-1.86zm28.87-10.48h-7.54v20.92H96.3V86.09h-7.52v-2.53h18.14v2.53zm16.74 10.09H113.5v8.31h11.81v2.52H110.4V83.56h14.75v2.53H113.5v7.56h10.16v2.53zm14.1 1.35h-5.51v9.48h-3.11V83.56h7.77a9.181 9.181 0 016.1 1.81 6.489 6.489 0 012.13 5.25 6.336 6.336 0 01-1.14 3.82 7.122 7.122 0 01-3.3 2.43l5.51 10v.14h-3.32l-5.13-9.48zm-5.51-2.52H137a5.4 5.4 0 003.67-1.19 4.007 4.007 0 001.33-3.21 4.26 4.26 0 00-1.29-3.34 5.49 5.49 0 00-3.71-1.18h-4.74l-.01 8.92zm30.49 1.17h-10.17v8.31h11.81v2.52h-14.9V83.56h14.74v2.53h-11.65v7.56h10.17v2.53zm5.49 10.83V83.56h6.62a10.69 10.69 0 015.42 1.35 9.153 9.153 0 013.63 3.86 12.402 12.402 0 011.3 5.73v1.51a12.676 12.676 0 01-1.28 5.82 9.074 9.074 0 01-3.66 3.83 11.318 11.318 0 01-5.53 1.37l-6.5-.02zm3.1-20.93v18.4h3.25a7.102 7.102 0 005.57-2.22 9.25 9.25 0 002-6.34v-1.36a9.351 9.351 0 00-1.88-6.22 6.665 6.665 0 00-5.32-2.25l-3.62-.01z"/></g><defs><clipPath id="clip0"><path fill="#fff" d="M0 0h187.09v107.34H0z"/></clipPath></defs></svg>