<svg xmlns="http://www.w3.org/2000/svg" xmlns:xlink="http://www.w3.org/1999/xlink" width="1747" zoomAndPan="magnify" viewBox="0 0 1310.25 205.499994" height="274" preserveAspectRatio="xMidYMid meet" version="1.0"><defs><g/><clipPath id="accc7f0cfd"><path d="M 1.214844 0 L 1308.285156 0 L 1308.285156 205 L 1.214844 205 Z M 1.214844 0 " clip-rule="nonzero"/></clipPath><clipPath id="a52b5178e6"><path d="M 633 0 L 1308.285156 0 L 1308.285156 201 L 633 201 Z M 633 0 " clip-rule="nonzero"/></clipPath></defs><g clip-path="url(#accc7f0cfd)"><path fill="#ffffff" d="M 1.214844 0 L 1308.285156 0 L 1308.285156 205 L 1.214844 205 Z M 1.214844 0 " fill-opacity="1" fill-rule="nonzero"/><path fill="#ffffff" d="M 1.214844 0 L 1308.285156 0 L 1308.285156 205 L 1.214844 205 Z M 1.214844 0 " fill-opacity="1" fill-rule="nonzero"/></g><g fill="#089c94" fill-opacity="1"><g transform="translate(23.536276, 163.276644)"><g><path d="M 83.390625 -91.671875 C 80.691406 -94.585938 77.796875 -96.832031 74.703125 -98.40625 C 71.609375 -99.988281 67.132812 -100.78125 61.28125 -100.78125 C 55.425781 -100.78125 51.09375 -99.9375 48.28125 -98.25 C 45.46875 -96.5625 44.0625 -94.535156 44.0625 -92.171875 C 44.0625 -88.117188 47.660156 -85.25 54.859375 -83.5625 L 82.890625 -76.296875 C 93.128906 -73.710938 100.835938 -69.179688 106.015625 -62.703125 C 111.191406 -56.234375 113.78125 -48.5 113.78125 -39.5 C 113.78125 -31.175781 111.582031 -23.914062 107.1875 -17.71875 C 102.800781 -11.53125 96.53125 -6.75 88.375 -3.375 C 80.21875 0 70.679688 1.6875 59.765625 1.6875 C 47.378906 1.6875 36.09375 -0.363281 25.90625 -4.46875 C 15.726562 -8.582031 8.671875 -13.957031 4.734375 -20.59375 C 4.160156 -21.71875 3.875 -22.5625 3.875 -23.125 C 3.875 -24.25 4.492188 -25.265625 5.734375 -26.171875 L 23.125 -38.15625 C 24.363281 -38.9375 25.488281 -39.328125 26.5 -39.328125 C 27.738281 -39.328125 28.753906 -38.820312 29.546875 -37.8125 C 33.367188 -32.863281 37.25 -29.375 41.1875 -27.34375 C 45.125 -25.320312 50.359375 -24.3125 56.890625 -24.3125 C 63.191406 -24.3125 68.171875 -25.179688 71.828125 -26.921875 C 75.484375 -28.671875 77.3125 -31.0625 77.3125 -34.09375 C 77.3125 -36.238281 76.410156 -38.097656 74.609375 -39.671875 C 72.816406 -41.242188 70.175781 -42.425781 66.6875 -43.21875 L 41.015625 -49.46875 C 30.890625 -51.9375 22.84375 -56.578125 16.875 -63.390625 C 10.914062 -70.203125 7.9375 -78.050781 7.9375 -86.9375 C 7.9375 -94.25 10.070312 -100.972656 14.34375 -107.109375 C 18.625 -113.242188 24.703125 -118.082031 32.578125 -121.625 C 40.453125 -125.175781 49.566406 -126.953125 59.921875 -126.953125 C 70.054688 -126.953125 79.457031 -125.289062 88.125 -121.96875 C 96.789062 -118.644531 103.035156 -114.226562 106.859375 -108.71875 C 107.648438 -107.707031 108.046875 -106.75 108.046875 -105.84375 C 108.046875 -105.050781 107.648438 -104.320312 106.859375 -103.65625 L 88.453125 -90.3125 C 87.890625 -89.863281 87.269531 -89.640625 86.59375 -89.640625 C 85.8125 -89.640625 84.742188 -90.316406 83.390625 -91.671875 Z M 83.390625 -91.671875 "/></g></g></g><g fill="#089c94" fill-opacity="1"><g transform="translate(141.876164, 163.276644)"><g><path d="M 115.46875 -49.46875 C 115.46875 -31.007812 110.796875 -17.867188 101.453125 -10.046875 C 92.109375 -2.222656 78.773438 1.6875 61.453125 1.6875 C 41.984375 1.6875 28.109375 -2.8125 19.828125 -11.8125 C 11.554688 -20.820312 7.421875 -34.5 7.421875 -52.84375 L 7.421875 -121.375 C 7.421875 -122.613281 7.703125 -123.570312 8.265625 -124.25 C 8.828125 -124.925781 9.617188 -125.265625 10.640625 -125.265625 L 42.703125 -125.265625 C 44.734375 -125.265625 45.75 -124.082031 45.75 -121.71875 L 45.75 -48.78125 C 45.75 -40.457031 47.351562 -34.4375 50.5625 -30.71875 C 53.769531 -27.007812 58.351562 -25.15625 64.3125 -25.15625 C 70.164062 -25.15625 74.894531 -27.007812 78.5 -30.71875 C 82.101562 -34.4375 83.90625 -40.628906 83.90625 -49.296875 L 83.90625 -121.375 C 83.90625 -123.96875 84.972656 -125.265625 87.109375 -125.265625 L 112.421875 -125.265625 C 114.453125 -125.265625 115.46875 -124.082031 115.46875 -121.71875 Z M 115.46875 -49.46875 "/></g></g></g><g fill="#089c94" fill-opacity="1"><g transform="translate(264.774068, 163.276644)"><g><path d="M 64.15625 1.6875 C 52.445312 1.6875 42.117188 -1.007812 33.171875 -6.40625 C 24.222656 -11.8125 17.300781 -19.328125 12.40625 -28.953125 C 7.507812 -38.578125 5.0625 -49.632812 5.0625 -62.125 C 5.0625 -74.957031 7.648438 -86.265625 12.828125 -96.046875 C 18.003906 -105.835938 25.234375 -113.4375 34.515625 -118.84375 C 43.804688 -124.25 54.414062 -126.953125 66.34375 -126.953125 C 76.019531 -126.953125 84.65625 -125.175781 92.25 -121.625 C 99.851562 -118.082031 105.988281 -113.5 110.65625 -107.875 C 115.320312 -102.25 118.390625 -96.285156 119.859375 -89.984375 C 120.191406 -88.628906 120.359375 -87.554688 120.359375 -86.765625 C 120.359375 -85.753906 120.132812 -85.078125 119.6875 -84.734375 C 119.238281 -84.398438 118.507812 -84.175781 117.5 -84.0625 L 88.625 -79.671875 C 87.382812 -79.671875 86.59375 -79.894531 86.25 -80.34375 C 85.914062 -80.800781 85.582031 -81.707031 85.25 -83.0625 C 84.351562 -88.238281 82.242188 -92.484375 78.921875 -95.796875 C 75.597656 -99.117188 71.125 -100.78125 65.5 -100.78125 C 58.863281 -100.78125 53.828125 -97.9375 50.390625 -92.25 C 46.953125 -86.570312 45.234375 -76.867188 45.234375 -63.140625 C 45.234375 -48.734375 47.09375 -38.710938 50.8125 -33.078125 C 54.53125 -27.453125 59.875 -24.640625 66.84375 -24.640625 C 75.96875 -24.640625 82.046875 -28.582031 85.078125 -36.46875 L 85.59375 -37.984375 L 85.921875 -39.328125 C 85.921875 -40.347656 85.300781 -40.859375 84.0625 -40.859375 L 68.203125 -40.859375 C 66.960938 -40.859375 66.085938 -41.140625 65.578125 -41.703125 C 65.078125 -42.265625 64.828125 -43.21875 64.828125 -44.5625 L 64.828125 -60.765625 C 64.828125 -62.679688 66.007812 -63.640625 68.375 -63.640625 L 115.640625 -63.3125 C 117.660156 -63.3125 119.234375 -62.832031 120.359375 -61.875 C 121.484375 -60.914062 122.046875 -59.648438 122.046875 -58.078125 L 122.046875 -2.875 C 122.046875 -2.082031 121.765625 -1.40625 121.203125 -0.84375 C 120.640625 -0.28125 119.96875 0 119.1875 0 L 112.765625 0 C 110.742188 0 108.941406 -1.066406 107.359375 -3.203125 L 100.609375 -13 C 100.492188 -13.332031 100.269531 -13.5 99.9375 -13.5 C 99.707031 -13.5 99.3125 -13.21875 98.75 -12.65625 C 95.820312 -9.84375 93.035156 -7.476562 90.390625 -5.5625 C 87.753906 -3.65625 84.238281 -1.96875 79.84375 -0.5 C 75.457031 0.957031 70.226562 1.6875 64.15625 1.6875 Z M 64.15625 1.6875 "/></g></g></g><g fill="#089c94" fill-opacity="1"><g transform="translate(393.242908, 163.276644)"><g><path d="M 7.265625 0 C 6.359375 0 5.625 -0.304688 5.0625 -0.921875 C 4.5 -1.546875 4.21875 -2.421875 4.21875 -3.546875 C 4.21875 -4.335938 4.390625 -5.238281 4.734375 -6.25 L 45.578125 -121.375 C 46.140625 -122.84375 46.757812 -123.859375 47.4375 -124.421875 C 48.113281 -124.984375 49.179688 -125.265625 50.640625 -125.265625 L 83.90625 -125.265625 C 85.25 -125.265625 86.457031 -124.84375 87.53125 -124 C 88.601562 -123.15625 89.421875 -122.054688 89.984375 -120.703125 L 130.484375 -5.734375 C 130.710938 -4.835938 130.828125 -4.164062 130.828125 -3.71875 C 130.828125 -2.695312 130.601562 -1.820312 130.15625 -1.09375 C 129.707031 -0.363281 129.03125 0 128.125 0 L 95.046875 0 C 93.128906 0 91.890625 -0.957031 91.328125 -2.875 L 84.75 -22.28125 C 84.40625 -23.070312 84.09375 -23.609375 83.8125 -23.890625 C 83.53125 -24.171875 83 -24.3125 82.21875 -24.3125 L 46.421875 -24.3125 C 45.066406 -24.3125 44.222656 -23.691406 43.890625 -22.453125 L 36.96875 -2.53125 C 36.289062 -0.84375 34.941406 0 32.921875 0 Z M 73.765625 -53 C 75.003906 -53 75.625 -53.5625 75.625 -54.6875 C 75.625 -54.914062 75.515625 -55.484375 75.296875 -56.390625 L 65.15625 -85.25 C 64.9375 -85.8125 64.597656 -86.09375 64.140625 -86.09375 C 63.691406 -86.09375 63.359375 -85.8125 63.140625 -85.25 L 52.84375 -56.546875 C 52.613281 -56.097656 52.5 -55.535156 52.5 -54.859375 C 52.5 -53.617188 53.175781 -53 54.53125 -53 Z M 73.765625 -53 "/></g></g></g><g fill="#089c94" fill-opacity="1"><g transform="translate(528.126743, 163.276644)"><g><path d="M 118.34375 -5.40625 C 118.5625 -4.957031 118.671875 -4.335938 118.671875 -3.546875 C 118.671875 -2.535156 118.359375 -1.691406 117.734375 -1.015625 C 117.117188 -0.335938 116.304688 0 115.296875 0 L 82.546875 0 C 80.179688 0 78.660156 -1.179688 77.984375 -3.546875 L 62.125 -47.09375 C 61.78125 -48 61.210938 -48.675781 60.421875 -49.125 C 59.640625 -49.570312 58.460938 -49.796875 56.890625 -49.796875 L 49.125 -49.796875 C 48.445312 -49.796875 47.9375 -49.570312 47.59375 -49.125 C 47.257812 -48.675781 47.09375 -48.28125 47.09375 -47.9375 L 47.09375 -4.890625 C 47.09375 -3.085938 46.640625 -1.820312 45.734375 -1.09375 C 44.835938 -0.363281 43.4375 0 41.53125 0 L 13.171875 0 C 11.484375 0 10.328125 -0.335938 9.703125 -1.015625 C 9.085938 -1.691406 8.78125 -2.757812 8.78125 -4.21875 L 8.78125 -121.375 C 8.78125 -123.96875 9.847656 -125.265625 11.984375 -125.265625 L 68.375 -125.265625 C 84.6875 -125.265625 97.34375 -122.140625 106.34375 -115.890625 C 115.351562 -109.640625 119.859375 -100.832031 119.859375 -89.46875 C 119.859375 -81.707031 117.800781 -74.785156 113.6875 -68.703125 C 109.582031 -62.628906 104.269531 -58.351562 97.75 -55.875 C 97.070312 -55.539062 96.734375 -54.976562 96.734375 -54.1875 C 96.734375 -53.851562 96.84375 -53.347656 97.0625 -52.671875 Z M 66.84375 -74.953125 C 71.125 -74.953125 74.414062 -76.046875 76.71875 -78.234375 C 79.03125 -80.429688 80.1875 -83.390625 80.1875 -87.109375 C 80.1875 -91.273438 78.804688 -94.507812 76.046875 -96.8125 C 73.296875 -99.125 69.894531 -100.28125 65.84375 -100.28125 L 50.984375 -100.28125 C 49.515625 -100.28125 48.5 -100.023438 47.9375 -99.515625 C 47.375 -99.003906 47.09375 -98.128906 47.09375 -96.890625 L 47.09375 -78.5 C 47.09375 -77.257812 47.289062 -76.359375 47.6875 -75.796875 C 48.082031 -75.234375 48.84375 -74.953125 49.96875 -74.953125 Z M 66.84375 -74.953125 "/></g></g></g><g clip-path="url(#a52b5178e6)"><path stroke-linecap="butt" transform="matrix(1.266167, 0, 0, 1.266167, 654.750931, 55.652423)" fill="none" stroke-linejoin="miter" d="M 30.785456 -13.923109 C 41.351916 -13.923109 47.929345 -13.879918 50.511572 -13.793535 C 67.849822 -13.164175 80.955317 -8.477912 89.831144 0.268341 C 98.728566 9.014593 103.177277 20.679348 103.177277 35.262606 C 103.177277 45.048536 101.171963 53.67447 97.155166 61.140406 C 93.163049 68.606343 87.205725 74.452604 79.286279 78.685358 C 71.385344 82.896516 61.750583 85.000553 50.378913 85.000553 L 15.322946 85.000553 C 13.977843 85.000553 12.990612 84.695128 12.361252 84.087364 C 11.753488 83.458004 11.448063 82.427581 11.448063 80.996096 L 11.448063 -10.603544 C 11.448063 -11.840668 11.710296 -12.698325 12.231678 -13.17343 C 12.77157 -13.673216 13.71561 -13.923109 15.060712 -13.923109 Z M 43.05489 7.006195 C 42.601381 7.006195 42.265105 7.138854 42.046063 7.398002 C 41.830106 7.65715 41.722128 8.147681 41.722128 8.863423 L 41.722128 62.05051 C 41.722128 62.855721 41.851702 63.395613 42.11085 63.679442 C 42.373084 63.93859 42.860529 64.068164 43.576272 64.068164 L 44.520312 64.068164 C 53.309756 64.068164 59.995163 61.779022 64.573448 57.200736 C 69.151733 52.622451 71.440876 45.17811 71.440876 34.870798 C 71.440876 25.973376 69.703965 19.355841 66.23323 15.015109 C 62.781006 10.65278 57.727616 8.156936 51.063804 7.527576 Z M 114.246608 -10.862692 C 114.246608 -12.901942 115.091925 -13.923109 116.782558 -13.923109 L 188.788742 -13.923109 C 190.371397 -13.923109 191.164267 -12.99141 191.164267 -11.124925 L 191.034693 4.337585 C 191.034693 6.747046 189.883952 7.950234 187.582469 7.950234 L 147.578005 7.950234 C 145.538755 7.950234 144.517588 8.786296 144.517588 10.458419 L 144.517588 21.786898 C 144.517588 22.675406 144.733545 23.369553 145.168544 23.869339 C 145.625138 24.369125 146.211307 24.615933 146.927049 24.615933 L 170.91677 24.615933 C 172.783254 24.615933 173.714954 25.495186 173.714954 27.253692 L 173.714954 43.789816 C 173.714954 45.307684 172.912829 46.069703 171.308578 46.069703 L 146.633965 46.069703 C 146.026201 46.069703 145.51716 46.251724 145.103757 46.621936 C 144.711949 46.970552 144.517588 47.402466 144.517588 47.923847 L 144.517588 61.26998 C 144.517588 61.985723 144.625566 62.473169 144.844608 62.735402 C 145.060565 62.99455 145.483224 63.124124 146.112584 63.124124 L 189.439698 63.124124 C 191.392565 63.124124 192.367456 63.972526 192.367456 65.66316 L 192.367456 82.06971 C 192.367456 82.961303 192.095967 83.677046 191.55299 84.220023 C 191.034693 84.73832 190.241823 85.000553 189.177464 85.000553 L 117.859258 85.000553 C 116.514155 85.000553 115.570115 84.73832 115.027138 84.220023 C 114.505756 83.677046 114.246608 82.828644 114.246608 81.680988 Z M 200.518284 -10.862692 C 200.518284 -11.754285 200.799028 -12.479283 201.363601 -13.043856 C 201.949769 -13.630025 202.776576 -13.923109 203.837849 -13.923109 L 283.556778 -13.923109 C 284.642732 -13.923109 285.466453 -13.630025 286.031026 -13.043856 C 286.617195 -12.479283 286.910279 -11.754285 286.910279 -10.862692 L 286.910279 4.988541 C 286.910279 6.682259 285.932303 7.527576 283.979436 7.527576 L 260.381523 7.527576 C 259.317164 7.527576 258.786527 7.97183 258.786527 8.863423 L 258.786527 82.06971 C 258.786527 83.047686 258.55823 83.785024 258.101635 84.28481 C 257.666636 84.759915 257.049617 85.000553 256.247491 85.000553 L 230.921923 85.000553 C 229.314587 85.000553 228.512462 84.10896 228.512462 82.331943 L 228.512462 9.415656 C 228.512462 8.156936 228.025016 7.527576 227.04704 7.527576 L 203.578701 7.527576 C 201.539451 7.527576 200.518284 6.682259 200.518284 4.988541 Z M 342.784486 86.333315 C 333.084938 86.333315 324.610175 84.27247 317.36328 80.150779 C 310.1133 76.004408 304.538528 70.133467 300.629709 62.541041 C 296.723975 54.94553 294.771108 46.035767 294.771108 35.814838 C 294.771108 25.593909 296.745571 16.640955 300.697581 8.959061 C 304.668102 1.255572 310.267555 -4.701752 317.492854 -8.909825 C 324.739749 -13.142579 333.171321 -15.258957 342.784486 -15.258957 C 352.289672 -15.258957 360.634862 -13.142579 367.81697 -8.909825 C 375.020673 -4.701752 380.59853 1.255572 384.547455 8.959061 C 388.521061 16.640955 390.504779 25.593909 390.504779 35.814838 C 390.504779 45.949385 388.542657 54.834466 384.612242 62.473169 C 380.706509 70.111871 375.153332 76.004408 367.946544 80.150779 C 360.764436 84.27247 352.376055 86.333315 342.784486 86.333315 Z M 342.784486 65.533586 C 346.69022 65.533586 349.793828 64.58029 352.095311 62.670615 C 354.415305 60.760939 356.109023 57.678927 357.173382 53.424577 C 358.234656 49.151716 358.768378 43.410349 358.768378 36.206646 C 358.768378 25.180506 357.518913 17.270315 355.023069 12.476073 C 352.551906 7.678746 348.470321 5.281625 342.784486 5.281625 C 336.990672 5.281625 332.82579 7.678746 330.286755 12.476073 C 327.769315 17.270315 326.510595 25.180506 326.510595 36.206646 C 326.510595 43.410349 327.041232 49.151716 328.10559 53.424577 C 329.166864 57.678927 330.869838 60.760939 333.214512 62.670615 C 335.580782 64.58029 338.770774 65.533586 342.784486 65.533586 Z M 490.49897 78.197912 C 491.73301 80.064396 492.353114 81.569924 492.353114 82.720666 C 492.353114 84.241619 491.11599 85.000553 488.641742 85.000553 L 464.618085 85.000553 C 461.863092 85.000553 459.996608 84.10896 459.021717 82.331943 L 444.373673 57.265523 C 443.568462 55.942016 442.939102 55.281806 442.485593 55.281806 C 441.964211 55.281806 441.344107 55.898825 440.628364 57.135949 L 426.242553 82.331943 C 425.264577 84.10896 423.354901 85.000553 420.513526 85.000553 L 401.56794 85.000553 C 399.072096 85.000553 397.822631 84.28481 397.822631 82.85024 C 397.822631 81.875349 398.495183 80.323545 399.84337 78.197912 L 426.109893 37.539408 C 426.717658 36.6509 427.023082 35.848774 427.023082 35.129946 C 427.023082 34.500586 426.717658 33.698461 426.109893 32.72357 L 399.158479 -9.267697 C 398.72348 -9.789078 398.507523 -10.538757 398.507523 -11.513648 C 398.507523 -13.120984 399.439223 -13.923109 401.305707 -13.923109 L 426.501701 -13.923109 C 427.911591 -13.923109 429.019141 -13.694812 429.821266 -13.238217 C 430.623392 -12.806304 431.299028 -12.099816 431.83892 -11.124925 L 443.981865 10.328845 C 444.416864 11.044588 444.90431 11.402459 445.447287 11.402459 C 445.968668 11.402459 446.456114 11.044588 446.912708 10.328845 L 459.021717 -11.124925 C 459.561609 -12.099816 460.212565 -12.806304 460.974584 -13.238217 C 461.733518 -13.694812 462.819473 -13.923109 464.229362 -13.923109 L 484.899518 -13.923109 C 486.676534 -13.923109 487.568128 -13.262898 487.568128 -11.936306 C 487.568128 -11.306946 487.253448 -10.504821 486.624088 -9.52993 L 461.428094 29.141772 C 460.909797 29.943897 460.647564 30.650384 460.647564 31.258149 C 460.647564 31.887509 460.99618 32.776017 461.690327 33.926758 Z M 490.49897 78.197912 " stroke="#089c94" stroke-width="4.999988" stroke-opacity="1" stroke-miterlimit="4"/></g></svg>