<svg width="156" height="108" fill="none" xmlns="http://www.w3.org/2000/svg"><g clip-path="url(#clip0)" fill="#F23D4C"><path d="M150.767 71.685V68.2a7.628 7.628 0 01-5.085-2.313 7.612 7.612 0 01-2.142-5.154 7.461 7.461 0 012.101-5.194 7.482 7.482 0 015.126-2.273V50.03a13.761 13.761 0 00-1.744-6.223c-5.234-9.707-10.965-19.165-16.448-28.873a6.047 6.047 0 00-2.442-2.68 6.065 6.065 0 00-3.539-.804h-17.942c-5.483 0-8.224 2.489-8.224 8.213v52.27h-46.6a26.48 26.48 0 017.226 19.415h38.627c0-20.485 15.45-25.388 22.677-25.637a23.094 23.094 0 0115.201 4.73 23.467 23.467 0 019.221 20.907c5.233.498 7.476.25 9.22-3.982V75.418a5.736 5.736 0 00-5.233-3.734zm-16.198-30.118h-21.93c-1.495 0-2.243-.498-2.243-1.991v-15.93c0-1.742.499-2.489 2.243-2.489h10.965a3.794 3.794 0 012.492 1.493 566.23 566.23 0 019.47 16.677c1.246 1.494.747 2.24-.997 2.24zM61.055 91.348H99.68 61.054zm89.712-34.598a3.859 3.859 0 00-3.489 3.983 4.03 4.03 0 003.489 3.982V56.75z"/><path d="M125.846 73.178a17.21 17.21 0 00-12.188 2.574 17.175 17.175 0 00-7.249 10.12c-2.243 9.459 3.987 20.411 13.955 21.904a18.052 18.052 0 0018.764-10.286 18.01 18.01 0 001.671-7.386 17.564 17.564 0 00-4.396-11.178 17.6 17.6 0 00-10.557-5.748zm-2.492 24.89a7.61 7.61 0 01-5.5-2.222 7.597 7.597 0 01-2.225-5.493c0-2.014.801-3.945 2.226-5.368a7.607 7.607 0 0110.749 0 7.585 7.585 0 012.227 5.368 7.465 7.465 0 01-4.557 7.125 7.48 7.48 0 01-2.92.59zM43.86 73.925a17.463 17.463 0 00-12.665.09 17.436 17.436 0 00-9.265 8.622 17.205 17.205 0 00-1.137 12.659 17.227 17.227 0 007.865 9.991 17.466 17.466 0 0019.351-2.536 17.427 17.427 0 005.861-12.092 17.404 17.404 0 00-4.494-12.663 17.441 17.441 0 00-5.517-4.071zm-6.23 24.144a7.78 7.78 0 01-5.449-2.275 7.762 7.762 0 01-2.277-5.441 7.586 7.586 0 014.749-7.163 7.607 7.607 0 012.976-.553 7.48 7.48 0 015.287 2.187 7.463 7.463 0 012.19 5.28 7.46 7.46 0 01-2.006 5.605 7.476 7.476 0 01-5.47 2.36zm-23.426-6.721c-3.488 0-6.728.25-9.968 0a4.836 4.836 0 01-3.005-1.572A4.825 4.825 0 010 86.62v-.996l14.204 5.725z"/><path d="M21.93 71.934c-1.745 1.742-7.726 6.148-7.85 19.365L0 85.623v-8.96a4.475 4.475 0 012.538-4.295 4.491 4.491 0 011.698-.434c5.732-.25 11.464 0 17.694 0zM95.693 4.978v62.475H3.49V4.978c0-1.32.525-2.586 1.46-3.52A4.987 4.987 0 018.473 0h82.485a4.986 4.986 0 013.365 1.543 4.975 4.975 0 011.37 3.435z"/></g><defs><clipPath id="clip0"><path fill="#fff" d="M0 0h156v108H0z"/></clipPath></defs></svg>