<svg width="47" height="39" fill="none" xmlns="http://www.w3.org/2000/svg"><path d="M29.375 0H0v20.563h29.375V0zM2.937 32.313a5.875 5.875 0 1011.747.265 5.875 5.875 0 00-11.747-.266zM8.813 23.5c-3.82 0-7.05 2.35-8.226 5.875H0V23.5h8.813z" fill="#F23D4C"/><path d="M32.313 5.875h11.75L47 17.625v11.75h-3.525C42.3 25.85 39.069 23.5 35.25 23.5s-7.05 2.35-8.225 5.875h-9.987C15.863 25.85 12.63 23.5 8.812 23.5h23.5V5.875zm2.937 11.75h8.813l-2.35-8.813H35.25v8.813z" fill="#F23D4C"/><path d="M29.375 32.313a5.875 5.875 0 1011.748.265 5.875 5.875 0 00-11.748-.266z" fill="#F23D4C"/></svg>